<svg xmlns="http://www.w3.org/2000/svg">
    <!-- Email -->
    <symbol id="email" viewBox="0 0 24 24">
        <path fill="currentColor"
              d="m20 8l-8 5l-8-5V6l8 5l8-5m0-2H4c-1.11 0-2 .89-2 2v12a2 2 0 0 0 2 2h16a2 2 0 0 0 2-2V6a2 2 0 0 0-2-2" />
    </symbol>

    <!-- RSS -->
    <symbol id="rss" viewBox="0 0 24 24">
        <g fill="none" fill-rule="evenodd">
		    <path d="m12.594 23.258l-.012.002l-.071.035l-.02.004l-.014-.004l-.071-.036q-.016-.004-.024.006l-.004.01l-.017.428l.005.02l.01.013l.104.074l.015.004l.012-.004l.104-.074l.012-.016l.004-.017l-.017-.427q-.004-.016-.016-.018m.264-.113l-.014.002l-.184.093l-.01.01l-.003.011l.018.43l.005.012l.008.008l.201.092q.019.005.029-.008l.004-.014l-.034-.614q-.005-.019-.02-.022m-.715.002a.02.02 0 0 0-.027.006l-.006.014l-.034.614q.001.018.017.024l.015-.002l.201-.093l.01-.008l.003-.011l.018-.43l-.003-.012l-.01-.01z" />
		    <path fill="currentColor" d="M18 3a3 3 0 0 1 2.995 2.824L21 6v12a3 3 0 0 1-2.824 2.995L18 21H6a3 3 0 0 1-2.995-2.824L3 18V6a3 3 0 0 1 2.824-2.995L6 3zM8.5 14a1.5 1.5 0 1 0 0 3a1.5 1.5 0 0 0 0-3M8 10.5a1 1 0 1 0 0 2a3.5 3.5 0 0 1 3.5 3.5a1 1 0 1 0 2 0A5.5 5.5 0 0 0 8 10.5M8.5 7q-.285 0-.566.019a1 1 0 0 0 .132 1.995a6.5 6.5 0 0 1 6.92 6.92a1 1 0 1 0 1.995.132A8.5 8.5 0 0 0 8.5 7" />
	    </g>
    </symbol>
    
    <!-- Github -->
    <symbol id="github" viewBox="0 0 24 24">
	    <path fill="currentColor" d="M12 2A10 10 0 0 0 2 12c0 4.42 2.87 8.17 6.84 9.5c.5.08.66-.23.66-.5v-1.69c-2.77.6-3.36-1.34-3.36-1.34c-.46-1.16-1.11-1.47-1.11-1.47c-.91-.62.07-.6.07-.6c1 .07 1.53 1.03 1.53 1.03c.87 1.52 2.34 1.07 2.91.83c.09-.65.35-1.09.63-1.34c-2.22-.25-4.55-1.11-4.55-4.92c0-1.11.38-2 1.03-2.71c-.1-.25-.45-1.29.1-2.64c0 0 .84-.27 2.75 1.02c.79-.22 1.65-.33 2.5-.33s1.71.11 2.5.33c1.91-1.29 2.75-1.02 2.75-1.02c.55 1.35.2 2.39.1 2.64c.65.71 1.03 1.6 1.03 2.71c0 3.82-2.34 4.66-4.57 4.91c.36.31.69.92.69 1.85V21c0 .27.16.59.67.5C19.14 20.16 22 16.42 22 12A10 10 0 0 0 12 2" />
    </symbol>

    <!-- LinkedIn -->
    <symbol id="linkedin" viewBox="0 0 24 24">
	    <path fill="currentColor" d="M19 3a2 2 0 0 1 2 2v14a2 2 0 0 1-2 2H5a2 2 0 0 1-2-2V5a2 2 0 0 1 2-2zm-.5 15.5v-5.3a3.26 3.26 0 0 0-3.26-3.26c-.85 0-1.84.52-2.32 1.3v-1.11h-2.79v8.37h2.79v-4.93c0-.77.62-1.4 1.39-1.4a1.4 1.4 0 0 1 1.4 1.4v4.93zM6.88 8.56a1.68 1.68 0 0 0 1.68-1.68c0-.93-.75-1.69-1.68-1.69a1.69 1.69 0 0 0-1.69 1.69c0 .93.76 1.68 1.69 1.68m1.39 9.94v-8.37H5.5v8.37z" />
    </symbol>

    <!-- YouTube -->
    <symbol id="youtube" viewBox="0 0 24 24">
	    <path fill="currentColor" d="m10 15l5.19-3L10 9zm11.56-7.83c.13.47.22 1.1.28 1.9c.07.8.1 1.49.1 2.09L22 12c0 2.19-.16 3.8-.44 4.83c-.25.9-.83 1.48-1.73 1.73c-.47.13-1.33.22-2.65.28c-1.3.07-2.49.1-3.59.1L12 19c-4.19 0-6.8-.16-7.83-.44c-.9-.25-1.48-.83-1.73-1.73c-.13-.47-.22-1.1-.28-1.9c-.07-.8-.1-1.49-.1-2.09L2 12c0-2.19.16-3.8.44-4.83c.25-.9.83-1.48 1.73-1.73c.47-.13 1.33-.22 2.65-.28c1.3-.07 2.49-.1 3.59-.1L12 5c4.19 0 6.8.16 7.83.44c.9.25 1.48.83 1.73 1.73" />
    </symbol>

    <!-- itch.io -->
    <symbol id="itchio" viewBox="0 0 640 640">
	    <path fill="currentColor" d="M135.9 98.8c-21.7 12.9-64.5 62-64.9 74.9V195c0 27.1 25.3 50.8 48.2 50.8c27.6 0 50.5-22.8 50.5-50c0 27.1 22.2 50 49.8 50s49-22.8 49-50c0 27.1 23.6 50 51.2 50h.5c27.6 0 51.2-22.8 51.2-50c0 27.1 21.5 50 49 50s49.8-22.8 49.8-50c0 27.1 23 50 50.5 50c23 0 48.3-23.8 48.3-50.8v-21.3c-.4-12.9-43.2-62.1-64.9-75c-67.4-2.3-114.2-2.7-184-2.7s-165 1.1-184.2 2.8m132.3 134.4c-22 38.4-77.9 38.7-99.8.2c-13.2 23.1-43.2 32.1-56 27.7c-3.9 40.2-13.7 237.1 17.7 269.2c80 18.7 302.1 18.1 379.8 0c31.6-32.3 21.3-232 17.7-269.2c-12.9 4.4-42.9-4.6-56-27.7c-22 38.5-77.8 38.1-99.8-.2c-7.1 12.5-23 28.9-51.8 28.9c-10.4.3-20.8-2.2-29.9-7.3s-16.7-12.6-21.9-21.6M226.6 287c16.5 0 31.1 0 49.2 19.8c29.3-3 58.9-3 88.2 0c18.2-19.7 32.8-19.7 49.2-19.7c52.3 0 65.2 77.5 83.9 144.4c17.3 62.2-5.5 63.7-34 63.7c-42.1-1.6-65.5-32.2-65.5-62.8c-39.3 6.4-101.9 8.8-155.6 0c0 30.6-23.3 61.2-65.5 62.8c-28.4-.1-51.2-1.6-33.9-63.7c18.7-67 31.6-144.4 83.9-144.4v-.1zm93.4 47.8s-44.4 40.8-52.4 55.2l29-1.2v25.3c0 1.5 21.3.2 23.3.2c11.6.5 23.3 1 23.3-.2v-25.3l29 1.2c-8-14.5-52.4-55.2-52.4-55.2h.1z" />
    </symbol>
</svg>
